HIERARCHY
ROOT Hips
{
	OFFSET 0.000000 0.000000 0.000000
	CHANNELS 6 Xposition Yposition Zposition Zrotation Yrotation Xrotation 
	JOINT LHipJoint
	{
		OFFSET 0.000000 0.000000 0.000000
		CHANNELS 3 Zrotation Yrotation Xrotation
		JOINT LeftUpLeg
		{
			OFFSET 1.363060 -1.794630 0.839290
			CHANNELS 3 Zrotation Yrotation Xrotation
			JOINT LeftLeg
			{
				OFFSET 2.448110 -6.726130 0.000000
				CHANNELS 3 Zrotation Yrotation Xrotation
				JOINT LeftFoot
				{
					OFFSET 2.562200 -7.039590 0.000000
					CHANNELS 3 Zrotation Yrotation Xrotation
					JOINT LeftToeBase
					{
						OFFSET 0.157640 -0.433110 2.322550
						CHANNELS 3 Zrotation Yrotation Xrotation
						End Site
						{
							OFFSET 0.000000 0.000000 0.000000
						}
					}
				}
			}
		}
	}
	JOINT RHipJoint
	{
		OFFSET 0.000000 0.000000 0.000000
		CHANNELS 3 Zrotation Yrotation Xrotation
		JOINT RightUpLeg
		{
			OFFSET -1.305520 -1.794630 0.839290
			CHANNELS 3 Zrotation Yrotation Xrotation
			JOINT RightLeg
			{
				OFFSET -2.542530 -6.985550 0.000000
				CHANNELS 3 Zrotation Yrotation Xrotation
				JOINT RightFoot
				{
					OFFSET -2.568260 -7.056230 0.000000
					CHANNELS 3 Zrotation Yrotation Xrotation
					JOINT RightToeBase
					{
						OFFSET -0.164730 -0.452590 2.363150
						CHANNELS 3 Zrotation Yrotation Xrotation
						End Site
						{
							OFFSET 0.000000 0.000000 0.000000
						}
					}
				}
			}
		}
	}
}
MOTION
Frames: 25
Frame Time: 0.008333
16.967845 16.744408 1.149031 150.740769 -86.374078 -101.827799 -8.901186 -0.648659 3.072018 -8.856708 -7.077976 -57.492541 -2.530823 -1.002004 18.113278 3.770801 14.335067 -12.505727 -0.196400 -0.000000 -38.781800 8.331578 0.436391 4.679252 1.794753 7.696144 -59.121651 2.251549 0.406487 18.805796 -2.933061 -8.419739 -11.334418 -0.552100 -0.000000 -63.297100
16.939564 16.648297 1.149432 149.007669 -86.329622 -99.125465 -8.800108 -0.605175 3.263265 -8.838256 -7.696104 -59.920773 -2.522642 -0.742700 20.793766 3.948287 14.384675 -13.892382 -0.556700 0.000000 -38.662400 8.342327 0.484990 4.923621 1.236711 8.072024 -61.882906 2.110848 0.040029 22.068679 -3.137718 -8.591773 -12.869797 -0.285600 0.000000 -62.890601
16.910537 16.542356 1.149539 146.734572 -86.294888 -95.909036 -8.702158 -0.560826 3.465047 -8.785939 -8.366668 -62.410289 -2.488438 -0.453174 23.654928 4.136367 14.478210 -15.299837 -0.931600 0.000000 -38.510700 8.362843 0.551755 5.164208 0.629733 8.410114 -64.655215 1.942975 -0.341373 25.454127 -3.356188 -8.823289 -14.447727 0.003100 -0.000000 -62.340500
16.880455 16.426594 1.149538 143.946497 -86.266815 -92.214953 -8.610395 -0.520414 3.675862 -8.687354 -9.086115 -64.943715 -2.421922 -0.136655 26.688019 4.334206 14.625445 -16.716100 -1.321500 0.000000 -38.318201 8.390340 0.638185 5.397128 -0.014102 8.703272 -67.409628 1.750734 -0.731359 28.939020 -3.586040 -9.113786 -16.064936 0.318300 0.000000 -61.627500
16.849599 16.301180 1.149705 140.686069 -86.243789 -88.095319 -8.526914 -0.489402 3.892784 -8.532627 -9.844976 -67.501035 -2.318974 0.201457 29.877277 4.539396 14.829968 -18.131048 -1.727600 -0.000000 -38.081500 8.422708 0.744343 5.618162 -0.677266 8.945113 -70.117668 1.538711 -1.124383 32.499455 -3.823300 -9.458081 -17.715394 0.663600 0.000000 -60.748300
16.817925 16.166609 1.150246 137.013046 -86.220953 -83.623139 -8.454925 -0.473500 4.112071 -8.318422 -10.628092 -70.054645 -2.178262 0.554353 33.199002 4.748058 15.089805 -19.536322 -2.150800 -0.000000 -37.804600 8.456609 0.868286 5.823393 -1.339922 9.131057 -72.749330 1.312330 -1.515828 36.111642 -4.062602 -9.846990 -19.389108 1.040800 0.000000 -59.722500
16.785653 16.023594 1.151357 132.997689 -86.196372 -78.879587 -8.395207 -0.477513 4.329154 -8.045991 -11.417136 -72.576759 -2.001592 0.914246 36.623509 4.955540 15.397825 -20.926742 -2.592400 -0.000000 -37.496900 8.490884 1.006941 6.009569 -1.979719 9.259171 -75.279138 1.077330 -1.902478 39.750437 -4.297889 -10.269088 -21.071455 1.449300 0.000000 -58.589400
16.752509 15.873214 1.153255 128.724719 -86.167955 -73.960041 -8.348616 -0.505005 4.539336 -7.722804 -12.191893 -75.034203 -1.793472 1.273185 40.113631 5.156876 15.744055 -22.298229 -3.052499 -0.000000 -37.176500 8.524592 1.155804 6.173793 -2.573858 9.329404 -77.680658 0.839199 -2.281954 43.387598 -4.522670 -10.711339 -22.741977 1.885100 0.000000 -57.415200
16.718539 15.716636 1.156036 124.279099 -86.138062 -68.955561 -8.312748 -0.556615 4.738356 -7.359386 -12.933384 -77.399041 -1.560500 1.624250 43.631493 5.347691 16.116301 -23.649711 -3.530500 0.000000 -36.866500 8.559956 1.310570 6.314551 -3.100781 9.345701 -79.935906 0.602327 -2.652942 46.994530 -4.731127 -11.160687 -24.377896 2.341601 0.000000 -56.277200
16.683740 15.555522 1.159734 119.752120 -86.106453 -63.965880 -8.287183 -0.631541 4.922669 -6.971542 -13.623809 -79.639397 -1.310299 1.962142 47.135805 5.524229 16.502772 -24.978779 -4.024400 0.000000 -36.594300 8.597474 1.466291 6.430799 -3.543005 9.313191 -82.025026 0.369917 -3.014230 50.540599 -4.918412 -11.604932 -25.954367 2.809500 -0.000000 -55.259500
16.647751 15.391535 1.164387 115.227487 -86.076493 -59.075245 -8.270251 -0.726415 5.089689 -6.575121 -14.248997 -81.728722 -1.050442 2.283069 50.587076 5.684126 16.893318 -26.283103 -4.531300 -0.000000 -36.388100 8.639151 1.618760 6.522394 -3.886645 9.239470 -83.933225 0.144033 -3.364553 53.993981 -5.081449 -12.034094 -27.448026 3.278600 -0.000000 -54.438600
16.595969 15.214099 1.192077 97.191713 -86.290863 -40.417931 -8.237932 -0.852479 5.597754 -5.281153 -15.385927 -84.431932 -0.659781 2.493726 53.995273 5.839739 17.294029 -27.298962 -4.924700 -0.000000 -36.703300 8.721951 1.661517 6.628737 -3.525443 8.828898 -86.009497 0.022513 -3.789504 57.262721 -5.276726 -12.514605 -28.965603 3.785700 0.000000 -53.659500
16.557009 15.050256 1.198256 93.052506 -86.234740 -36.112798 -8.220900 -0.955069 5.724591 -4.912713 -15.826102 -86.158326 -0.403374 2.773875 57.232011 5.962758 17.666152 -28.537088 -5.440000 -0.000000 -36.713300 8.787448 1.815720 6.674718 -3.654640 8.714674 -87.523442 -0.193765 -4.117186 60.452148 -5.388915 -12.891148 -30.243167 4.231900 -0.000000 -53.378101
16.516131 14.889639 1.204919 89.169386 -86.192458 -32.162653 -8.212860 -1.060490 5.831697 -4.584341 -16.181264 -87.677553 -0.153845 3.036061 60.324085 6.068086 18.027694 -29.727767 -5.952300 0.000000 -36.850399 8.856293 1.960713 6.699319 -3.682811 8.585027 -88.827876 -0.402411 -4.426628 63.467994 -5.478549 -13.239269 -31.404135 4.655500 -0.000000 -53.382800
16.473497 14.734095 1.211805 85.588587 -86.163247 -28.608227 -8.214994 -1.164865 5.919240 -4.308335 -16.453121 -88.978552 0.085804 3.280573 63.250179 6.156502 18.377524 -30.857934 -6.454799 -0.000000 -37.121200 8.927201 2.094308 6.704667 -3.621696 8.445638 -89.918103 -0.603405 -4.715074 66.291882 -5.549098 -13.560536 -32.453176 5.054300 0.000000 -53.643500
16.429181 14.585530 1.218520 82.359823 -86.146039 -25.498794 -8.227384 -1.264652 5.987526 -4.093822 -16.646305 -90.055626 0.313709 3.507975 65.995518 6.228963 18.715363 -31.913518 -6.940300 -0.000000 -37.522700 8.999196 2.215720 6.693039 -3.487117 8.301117 -90.791834 -0.796445 -4.980006 68.911724 -5.604501 -13.858156 -33.402384 5.429400 0.000001 -54.106400
16.383086 14.445551 1.224739 79.524537 -86.137198 -22.871117 -8.250458 -1.358486 6.036528 -3.945886 -16.768284 -90.906690 0.528634 3.718258 68.549842 6.286139 19.040024 -32.881046 -7.401900 -0.000001 -38.043400 9.070973 2.323641 6.666105 -3.296955 8.153691 -91.448952 -0.980565 -5.219282 71.319780 -5.648827 -14.136355 -34.269021 5.784300 0.000001 -54.699500
16.335339 14.315429 1.230139 77.124626 -86.131908 -20.760657 -8.284149 -1.445985 6.066612 -3.866485 -16.828812 -91.533795 0.729781 3.911039 70.907982 6.328742 19.350090 -33.749838 -7.833300 -0.000000 -38.665100 9.141787 2.416867 6.625913 -3.070818 8.004376 -91.892746 -1.154623 -5.431388 73.514214 -5.685640 -14.399232 -35.071850 6.123500 -0.000001 -55.349300
16.286421 14.196282 1.234333 75.201019 -86.124386 -19.206711 -8.327728 -1.527305 6.078613 -3.855127 -16.838510 -91.940860 0.916490 4.085891 73.069336 6.357159 19.642327 -34.513350 -8.229500 0.000000 -39.360300 9.211497 2.494465 6.574561 -2.827260 7.853214 -92.127667 -1.317345 -5.615688 75.498974 -5.717414 -14.648641 -35.829657 6.451500 0.000000 -55.979801
16.236601 14.088798 1.237180 73.753279 -86.110774 -18.201269 -8.380008 -1.603250 6.073214 -3.905091 -16.808355 -92.139717 1.088502 4.242161 75.037230 6.371833 19.912576 -35.169848 -8.586300 0.000000 -40.107000 9.280201 2.556276 6.513127 -2.582143 7.700263 -92.164844 -1.467368 -5.772624 77.281169 -5.745697 -14.885151 -36.555897 6.770900 0.000000 -56.545400
16.186446 13.993369 1.238455 72.797744 -86.095011 -17.748334 -8.437478 -1.671346 6.048177 -4.008007 -16.744871 -92.145762 1.245227 4.380249 76.816547 6.373343 20.155641 -35.724813 -8.901901 0.000000 -40.864200 9.349225 2.608043 6.439819 -2.348811 7.549106 -92.018096 -1.603322 -5.903256 78.871306 -5.770515 -15.106304 -37.259031 7.082399 0.000000 -56.992299
16.136078 13.910104 1.238228 72.291079 -86.068055 -17.803122 -8.501226 -1.733471 6.011070 -4.154336 -16.661656 -91.973043 1.386416 4.498886 78.413546 6.362631 20.366965 -36.186042 -9.175800 0.000000 -41.617800 9.418475 2.644607 6.360729 -2.136310 7.397153 -91.703951 -1.725040 -6.009215 80.282228 -5.791173 -15.307793 -37.937198 7.382500 0.000000 -57.334400
16.086157 13.838828 1.236637 72.173300 -86.027694 -18.294988 -8.571153 -1.790983 5.965074 -4.331176 -16.566980 -91.640902 1.511772 4.597761 79.835241 6.340906 20.543174 -36.565643 -9.409200 -0.000001 -42.349100 9.487340 2.664877 6.277704 -1.949655 7.245930 -91.244025 -1.832476 -6.092667 81.526316 -5.806107 -15.484461 -38.580552 7.665200 -0.000001 -57.589400
16.036478 13.778984 1.233873 72.375115 -85.982514 -19.140322 -8.644517 -1.838183 5.916569 -4.523088 -16.465610 -91.176211 1.621347 4.677623 81.087709 6.310326 20.682890 -36.878193 -9.605300 -0.000001 -43.049299 9.557678 2.673322 6.195181 -1.789594 7.100910 -90.664710 -1.925876 -6.155389 82.615702 -5.813415 -15.630652 -39.173441 7.922000 -0.000000 -57.798200
15.987396 13.730215 1.230259 72.798627 -85.936692 -20.232010 -8.720359 -1.873220 5.871478 -4.716021 -16.362036 -90.599202 1.715026 4.738582 82.174049 6.273130 20.787828 -37.136394 -9.767900 -0.000000 -43.722300 9.629414 2.670297 6.116753 -1.652090 6.964945 -89.988016 -2.005578 -6.199241 83.558006 -5.811280 -15.742388 -39.694701 8.143800 0.000000 -58.018999
